<svg width="18px" height="18px" viewBox="0 -6.5 36 36" fill="currentColor">
    <g stroke="none" strokeWidth="1" fillRule="evenodd">
        <g transform="translate(-342.000000, -159.000000)" fillRule="nonzero">
            <g transform="translate(50.000000, 120.000000)">
                <path
                    d="M317.108012,39.2902857 L327.649804,49.7417043 L327.708994,49.7959169 C327.889141,49.9745543 327.986143,50.2044182 328,50.4382227 L328,50.5617773 C327.986143,50.7955818 327.889141,51.0254457 327.708994,51.2040831 L327.6571,51.2479803 L317.108012,61.7097143 C316.717694,62.0967619 316.084865,62.0967619 315.694547,61.7097143 C315.30423,61.3226668 315.30423,60.6951387 315.694547,60.3080911 L324.702666,51.3738496 L292.99947,51.3746291 C292.447478,51.3746291 292,50.9308997 292,50.3835318 C292,49.8361639 292.447478,49.3924345 292.99947,49.3924345 L324.46779,49.3916551 L315.694547,40.6919089 C315.30423,40.3048613 315.30423,39.6773332 315.694547,39.2902857 C316.084865,38.9032381 316.717694,38.9032381 317.108012,39.2902857 Z M327.115357,50.382693 L316.401279,61.0089027 L327.002151,50.5002046 L327.002252,50.4963719 L326.943142,50.442585 L326.882737,50.382693 L327.115357,50.382693 Z"
                    transform="translate(310.000000, 50.500000) scale(-1, 1) translate(-310.000000, -50.500000) "
                ></path>
            </g>
        </g>
    </g>
</svg>